<svg xmlns="http://www.w3.org/2000/svg" viewBox="0 0 560 130"><path d="M260.5 20.4h4.2v8.1h6.7v-8.1h4.2v19.4c0 .5-.3.8-.8.8h-3.4v-8.7h-6.7v8.7h-4.2V20.4zm76.9 8.2c0-5 3-8.6 8.1-8.6s8.1 3.6 8.1 8.6v3.7c0 5-3 8.6-8.1 8.6s-8.1-3.6-8.1-8.6v-3.7zm11.9 3.4v-3.1c0-2.9-.8-5.5-3.8-5.5s-3.8 2.5-3.8 5.5V32c0 2.9.8 5.5 3.8 5.5 3-.1 3.8-2.6 3.8-5.5zm26.5-4.6c0-4.8 2.9-7.4 7.5-7.4 2 0 3.9.3 5.8.9l-.7 3.3a14 14 0 0 0-4.5-.7c-2.4 0-3.8 1-3.8 4.3v5.4c0 3.3 1.4 4.3 3.8 4.3 1.8 0 2.9-.3 4.5-.7l.7 3.3a19 19 0 0 1-5.8.9c-4.6 0-7.5-2.6-7.5-7.4v-6.2zm49.3-7h4.2v8.1h6.7v-8.1h4.2v19.4c0 .5-.3.8-.8.8H436v-8.7h-6.7v8.7h-4.2V20.4zM291.7 73.8c1.8.6 3.4 1.1 5.2 1.1 2 0 2.8-1 2.8-2.4 0-3.9-8.3-2.5-8.3-9.4 0-3.6 3-5.7 7-5.7 1.9 0 3.3.4 5.2 1.1l-1.1 3.2c-1.6-.5-2.6-.9-4.1-.9-1.7 0-2.6.9-2.6 2.2 0 3.4 8.3 2.5 8.3 9.4 0 3.6-2.9 5.9-7.1 5.9-2.3 0-3.8-.5-6-1.2l.7-3.3zm31.2-9c0-4.8 2.9-7.4 7.5-7.4 2 0 3.9.3 5.8.9l-.7 3.3a14 14 0 0 0-4.5-.7c-2.4 0-3.8 1-3.8 4.3v5.4c0 3.3 1.4 4.3 3.8 4.3 1.8 0 2.9-.3 4.5-.7l.7 3.3a19 19 0 0 1-5.8.9c-4.6 0-7.5-2.6-7.5-7.4v-6.2zm71.9-7h4.2v8.1h6.7v-8.1h4.2v19.4c0 .5-.3.8-.8.8h-3.4v-8.7H399V78h-4.2V57.8zm57 0h4.2v13c0 1.9 1 4 3.6 4s3.6-2.1 3.6-4v-13h4.2v12.5c0 5-2.7 8-7.7 8s-7.8-3-7.8-8V57.8h-.1zm35.3 0h4.2v16.7h8.5v2.7c0 .5-.3.8-.8.8h-12l.1-20.2zm46.1 5.5c0-3.3 2.1-5.5 6.4-5.5h5.6v3.5h-5.5c-1.7 0-2.3.8-2.3 2.4V66h6.9v3.4h-6.9v2.8c0 1.6.5 2.4 2.3 2.4h5.6v2.7c0 .5-.3.8-.8.8h-4.9c-4.2 0-6.4-2.2-6.4-5.5v-9.3zm-268 35.4h-4.7v-3.5H274v3.5h-4.6v16.7h-4.2V98.7zm41.8-2.6c2.2-.7 4.4-1.2 6.5-1.2 4.5 0 7 3.2 7 6.7 0 1.8-1 4.6-3.8 5.9l3.7 7.9h-4.6l-3.2-7.3h-1.5v7.3H307V96.1zm6.2 8.6c1.9 0 2.9-1.2 2.9-3.2 0-1.8-.8-3.2-2.6-3.2-.8 0-1.6.1-2.3.3v6.1h2zm52.5-9.5h4.2v19.4c0 .5-.3.8-.8.8h-3.4V95.2zm16.5 5.6c0-3.3 2.1-5.5 6.4-5.5h5.6v3.5h-5.5c-1.7 0-2.3.8-2.3 2.4v2.3h6.9v3.4h-6.9v2.8c0 1.6.5 2.4 2.3 2.4h5.6v2.7c0 .5-.3.8-.8.8h-4.9c-4.2 0-6.4-2.2-6.4-5.5v-9.3zm45.8-4.7c2.2-.7 4.4-1.2 6.5-1.2 4.5 0 7 3.2 7 6.7 0 1.8-1 4.6-3.8 5.9l3.7 7.9h-4.6l-3.2-7.3h-1.5v7.3H428V96.1zm6.2 8.6c1.9 0 2.9-1.2 2.9-3.2 0-1.8-.8-3.2-2.6-3.2-.8 0-1.6.1-2.3.3v6.1h2zm-203.7 10.7h-1.1v-95h1.1v95zM61 75.3h-4.1v-.9H66v.9h-4.1v13.3H61V75.3zm6.9 3h.7l.2 1.6c.7-1 1.8-1.9 2.9-1.9l.9.1-.1.8-.8-.1c-.9 0-2.1 1-2.8 2.1v7.7H68l-.1-10.3zm7.9-3c0-.4.3-.7.7-.7.4 0 .7.3.7.7 0 .4-.3.7-.7.7a.7.7 0 0 1-.7-.7zm.2 3h.9v10c0 .2-.1.4-.4.4H76V78.3zm5.1 3.8c0-2.2 1.5-4.1 3.9-4.1 2.5 0 4 2 4 4.1v1c0 .2-.2.4-.3.4H82v1.4c0 1.4.8 3.2 3.1 3.2 1.1 0 2.2-.2 3.2-.6l.2.8c-1.1.4-2.3.6-3.4.6-2.5 0-4-2-4-4.1v-2.7zm7 .5V82c0-1.5-.9-3.2-3.1-3.2s-3 1.7-3 3.2v.6h6.1zm4.9-4.3h.7l.2 1.6c.7-1 1.8-1.9 2.9-1.9l.9.1-.1.8-.8-.1c-.9 0-2.1 1-2.8 2.1v7.7h-1V78.3zm14.2-3.9h.9v9.5c0 2.1 1.2 4.1 4 4.1 2.7 0 4-2 4-4.1v-9.5h.9v9.1c0 3.4-1.8 5.4-4.9 5.4s-4.9-1.9-4.9-5.4v-9.1zm14.4 3.9h.7l.2 1.2c.9-.9 2.1-1.4 3.4-1.4 2.3 0 3.5 1.4 3.5 3.5v6.8c0 .2-.1.4-.4.4h-.5V82c0-1.9-.6-3-2.6-3-1.2 0-2.2.7-3.2 1.4v8.4h-.9V78.3h-.2zm12-3c0-.4.3-.7.7-.7s.7.3.7.7c0 .4-.3.7-.7.7a.7.7 0 0 1-.7-.7zm.3 3h.9v10c0 .2-.1.4-.4.4h-.5V78.3zm4.3 0h.9l2.6 7.3.7 2.4.8-2.4 2.6-7.3h.9L143 88.6h-1.2l-3.6-10.3zm11.3 3.8c0-2.2 1.5-4.1 3.9-4.1 2.5 0 4 2 4 4.1v1c0 .2-.2.4-.3.4h-6.6v1.4c0 1.4.8 3.2 3.1 3.2 1.1 0 2.2-.2 3.2-.6l.2.8c-1.1.4-2.3.6-3.4.6-2.5 0-4-2-4-4.1l-.1-2.7zm7 .5V82c0-1.5-.9-3.2-3.1-3.2s-3 1.7-3 3.2v.6h6.1zm4.9-4.3h.7l.2 1.6c.7-1 1.8-1.9 2.9-1.9l.9.1-.1.8-.8-.1c-.9 0-2.1 1-2.8 2.1v7.7h-.9l-.1-10.3zm7.5 9.2c.9.3 1.8.5 2.7.5 1.7 0 2.4-.8 2.4-2 0-2.4-5.2-2.1-5.2-5.3 0-1.7 1.3-2.8 3.2-2.8.8 0 1.6.1 2.4.4l-.2.8c-.7-.2-1.4-.3-2.2-.3-1.5 0-2.3.7-2.3 1.9 0 2.3 5.2 2.1 5.2 5.3 0 1.8-1.3 2.9-3.4 2.9-1 0-1.9-.2-2.9-.5l.3-.9zm9.8-12.2c0-.4.3-.7.7-.7s.7.3.7.7c0 .4-.3.7-.7.7a.7.7 0 0 1-.7-.7zm.2 3h.9v10c0 .2-.1.4-.4.4h-.5V78.3zm5.7.7l-1.7-.1v-.7h1.7v-3.5h.9v3.5h2.6v.8h-2.6v6.8c0 1.7.9 2.3 1.9 2.3l1.3-.1.1.8-1.4.2c-1.6 0-2.8-1.1-2.8-3v-7zm6.6-.7h.9l.9 7c.2 1.4.8 2.5 2.3 2.5.9 0 1.7-.3 2.5-.8l.5-8.7h.9l-.6 11.3c-.1 1.9-1 3.1-3.2 3.1h-1.8l-.1-.9h2c1.7 0 2.1-.9 2.2-2.3l.1-1.6c-.8.4-1.6.7-2.4.7-1.9 0-2.9-1.3-3.2-3.3l-1-7zM16 109.2c0-2.8 1.6-4.4 4.1-4.4s4.1 1.7 4.1 4.4v2c0 2.8-1.5 4.5-4.1 4.5S16 114 16 111.2v-2zm.9 1.8c0 2.2.9 3.8 3.2 3.8s3.2-1.5 3.2-3.8v-1.7c0-2.2-.9-3.7-3.2-3.7s-3.2 1.5-3.2 3.7v1.7zm11.6-5.2l-1.7-.1v-.7h1.7v-1.7c0-1.9 1.2-3 2.8-3 .5 0 1 0 1.4.2l-.1.8-1.3-.1c-1 0-1.9.5-1.9 2.3v1.6H32v.8h-2.6v9.2c0 .2-.1.4-.4.4h-.5v-9.7zm15.1-2.7c.4-1.4 1.2-2.2 2.3-2.2s2 .8 2.3 2.2l3.2 12.3h-.9l-1.2-4.4h-7l-1.1 4.4h-.9l3.3-12.3zm5.6 7.1l-1.8-6.9c-.2-.9-.6-1.5-1.5-1.5-.8 0-1.2.6-1.4 1.4l-1.8 6.9 6.5.1zm6.1-5.2h.7l.2 1.2c.9-.9 2.1-1.4 3.4-1.4 2.3 0 3.8 1.5 3.8 4.1v2.8c0 2.5-1.4 4.1-3.8 4.1-1.2 0-2.2-.6-3.3-1.4v5.2h-.9V105h-.1zm.9 8.4c1.1.7 2 1.4 3.2 1.4 2 0 2.9-1.2 2.9-3.5v-2.1c0-2.3-.9-3.5-2.9-3.5-1.2 0-2.3.8-3.2 1.4v6.3zm11.2-8.4h.6l.2 1.2c.9-.9 2.1-1.4 3.4-1.4 2.3 0 3.8 1.5 3.8 4.1v2.8c0 2.5-1.4 4.1-3.8 4.1-1.2 0-2.2-.6-3.3-1.4v5.2h-.9V105zm.9 8.4c1.1.7 2 1.4 3.2 1.4 2 0 2.9-1.2 2.9-3.5v-2.1c0-2.3-.9-3.5-2.9-3.5-1.2 0-2.3.8-3.2 1.4v6.3zm11.2-12.8h.9v13.3c0 .7.2.8.6.9l-.2.8c-.6-.1-1.3-.2-1.3-1.7v-13.3zm5.4 1.5c0-.4.3-.7.7-.7.4 0 .7.3.7.7 0 .4-.3.7-.7.7a.7.7 0 0 1-.7-.7zm.2 2.9h.9v10c0 .2-.1.4-.4.4h-.5V105zm5.1 3.8c0-2.2 1.5-4.1 3.9-4.1 2.5 0 4 2 4 4.1v1c0 .2-.2.4-.3.4h-6.6v1.4c0 1.4.8 3.2 3.1 3.2 1.1 0 2.2-.2 3.2-.6l.2.8c-1.1.4-2.3.6-3.4.6-2.5 0-4-2-4-4.1l-.1-2.7c.1 0 0 0 0 0zm7 .6v-.6c0-1.5-.9-3.2-3.1-3.2s-3 1.7-3 3.2v.6h6.1zm4.4-.6c0-2.5 1.4-4.1 3.8-4.1 1.2 0 2.2.6 3.3 1.4v-5.5h.9v14.8h-.7l-.2-1.2c-.9.9-2.1 1.4-3.4 1.4-2.3 0-3.8-1.5-3.8-4.1l.1-2.7zm1 2.5c0 2.3.9 3.5 2.9 3.5 1.2 0 2.3-.8 3.2-1.4v-6.3c-1-.8-2.1-1.4-3.2-1.4-2 0-2.9 1.2-2.9 3.5v2.1zm17.3 2.8c1.2.3 2.3.7 3.5.7 2.3 0 3.4-1.2 3.4-3 0-3.7-6.9-2.9-6.9-7.2 0-2.3 1.6-3.7 4.1-3.7 1.1 0 2.1.3 3.1.7l-.2.8c-1-.3-1.9-.6-2.9-.6-2.1 0-3.2 1-3.2 2.8 0 3.4 6.9 2.7 6.9 7.2 0 2.3-1.6 3.9-4.3 3.9-1.3 0-2.5-.3-3.7-.7l.2-.9zm11.5-4.9c0-2.8 1.4-4.5 4-4.5 1.1 0 2.1.2 3.1.5l-.2.8c-.9-.3-1.9-.5-2.9-.5-2.3 0-3.1 1.6-3.1 3.8v1.6c0 2.3.8 3.8 3.1 3.8 1 0 2-.2 2.9-.5l.2.8c-1 .3-2.1.5-3.1.5-2.5 0-4-1.8-4-4.5v-1.8zm10.9-7.1c0-.4.3-.7.7-.7s.7.3.7.7c0 .4-.3.7-.7.7-.5 0-.7-.3-.7-.7zm.2 2.9h.9v10c0 .2-.1.4-.4.4h-.5V105zm5.1 3.8c0-2.2 1.5-4.1 3.9-4.1 2.5 0 4 2 4 4.1v1c0 .2-.2.4-.3.4h-6.7v1.4c0 1.4.8 3.2 3.1 3.2 1.1 0 2.2-.2 3.2-.6l.2.8c-1.1.4-2.3.6-3.4.6-2.5 0-4-2-4-4.1v-2.7zm7 .6v-.6c0-1.5-.9-3.2-3.1-3.2s-3 1.7-3 3.2v.6h6.1zm4.9-4.4h.7l.2 1.2c.9-.9 2.1-1.4 3.4-1.4 2.3 0 3.5 1.4 3.5 3.5v6.8c0 .2-.1.4-.4.4h-.5v-6.8c0-1.9-.6-3-2.6-3-1.2 0-2.2.7-3.2 1.4v8.4h-.9V105h-.2zm11.8 4.2c0-2.8 1.4-4.5 4-4.5 1.1 0 2.1.2 3.1.5l-.2.8c-.9-.3-1.9-.5-2.9-.5-2.3 0-3.1 1.6-3.1 3.8v1.6c0 2.3.8 3.8 3.1 3.8 1 0 2-.2 2.9-.5l.2.8c-1 .3-2.1.5-3.1.5-2.5 0-4-1.8-4-4.5v-1.8zm10.5-.4c0-2.2 1.5-4.1 3.9-4.1 2.5 0 4 2 4 4.1v1c0 .2-.2.4-.3.4h-6.6v1.4c0 1.4.8 3.2 3.1 3.2 1.1 0 2.2-.2 3.2-.6l.2.8c-1.1.4-2.3.6-3.4.6-2.5 0-4-2-4-4.1l-.1-2.7zm7 .6v-.6c0-1.5-.9-3.2-3.1-3.2s-3 1.7-3 3.2v.6h6.1zm4.4 4.9c.9.3 1.8.5 2.7.5 1.7 0 2.4-.8 2.4-2 0-2.4-5.2-2.1-5.2-5.3 0-1.7 1.3-2.8 3.2-2.8.8 0 1.6.1 2.4.4l-.2.8c-.7-.2-1.4-.3-2.2-.3-1.5 0-2.3.7-2.3 1.9 0 2.3 5.2 2.1 5.2 5.3 0 1.8-1.3 2.9-3.4 2.9-1 0-1.9-.2-2.9-.5l.3-.9z"/></svg>